HIERARCHY
ROOT pelvis
{
  OFFSET 0 100 0
  CHANNELS 6 Xposition Yposition Zposition Zrotation Xrotation Yrotation
  JOINT pelvis_right_femur
  {
    OFFSET -10.78128 -3.44521 -0.5502486
    CHANNELS 3 Zrotation Xrotation Yrotation
    JOINT right_femur_tibia
    {
      OFFSET -0.8047443 -44.0398 -0.1307829
      CHANNELS 3 Zrotation Xrotation Yrotation
      JOINT right_tibia_foot
      {
        OFFSET 3.006224 -47.83518 -5
        CHANNELS 3 Zrotation Xrotation Yrotation
        End Site
        {
          OFFSET 0 -5 15
        }
      }
    }
  }
  JOINT pelvis_left_femur
  {
    OFFSET 10.78128 -3.44521 -0.5502486
    CHANNELS 3 Zrotation Xrotation Yrotation
    JOINT left_femur_tibia
    {
      OFFSET 0.8047443 -44.0398 -0.1307829
      CHANNELS 3 Zrotation Xrotation Yrotation
      JOINT left_tibia_foot
      {
        OFFSET -4.370144 -48.10324 -4.275266
        CHANNELS 3 Zrotation Xrotation Yrotation
        End Site
        {
          OFFSET 0 -5 15
        }
      }
    }
  }
  JOINT pelvis_spine1
  {
    OFFSET 0 6.468898 -3.129235
    CHANNELS 3 Zrotation Xrotation Yrotation
    JOINT spine1
    {
      OFFSET 0 23.15396 4.99043
      CHANNELS 3 Zrotation Xrotation Yrotation
      JOINT spine2
      {
        OFFSET 0 20.79997 -5.064912
        CHANNELS 3 Zrotation Xrotation Yrotation
        JOINT neck
        {
          OFFSET 0 14.38658 9.616178
          CHANNELS 3 Zrotation Xrotation Yrotation
          End Site
          {
            OFFSET 0 20 0
          }
        }
      }
      JOINT right_manubrium
      {
        OFFSET -5.722621 16.35077 3.967754
        CHANNELS 3 Zrotation Xrotation Yrotation
        JOINT right_clavicle
        {
          OFFSET -13.16364 1.694482 -4.693211
          CHANNELS 3 Zrotation Xrotation Yrotation
          JOINT right_humerus
          {
            OFFSET -28.5034 -0.3100689 -2.792744
            CHANNELS 3 Zrotation Xrotation Yrotation
            JOINT right_radius
            {
              OFFSET -25.15693 0.02248979 -1.271978
              CHANNELS 3 Zrotation Xrotation Yrotation
              End Site
              {
                OFFSET -15 0 0
              }
            }
          }
        }
      }
      JOINT left_manubrium
      {
        OFFSET 5.722621 16.35077 3.967754
        CHANNELS 3 Zrotation Xrotation Yrotation
        JOINT left_clavicle
        {
          OFFSET 13.16364 1.694482 -4.693211
          CHANNELS 3 Zrotation Xrotation Yrotation
          JOINT left_humerus
          {
            OFFSET 29.39168 -1.063119 -2.237045
            CHANNELS 3 Zrotation Xrotation Yrotation
            JOINT left_radius
            {
              OFFSET 24.59957 -0.9528479 0.9047498
              CHANNELS 3 Zrotation Xrotation Yrotation
              End Site
              {
                OFFSET 15 -0 -0
              }
            }
          }
        }
      }
    }
  }
}
MOTION
Frames: 11
Frame Time: 0.0416666666667
-542.7009 99.72747 3021.31 -3.290622 -6.640718 -32.83108 1.331668 19.03909 2.820439 -0 26.79552 -0 -2.270534 -9.26788 -2.010575 -0.5865754 -21.53216 -6.029534 -0 18.20335 -0 -4.421043 -6.969891 19.53401 1.426658 -3.769346 7.40288 0.1736195 16.8528 -5.739309 1.682331 20.1533 1.377257 -1.093639 -20.6465 5.241375 -2.625208 -30.05001 13.24493 90.01591 16.86311 -10.25415 -0 0 26.04208 -24.64983 16.89836 15.82712 2.43864 -22.02351 -6.539161 -93.46524 11.49224 34.28764 0 0 -8.602188 8.795207 16.07582 2.275772
-545.4519 99.96835 3027.913 -2.891285 -7.318358 -32.7507 0.1456218 18.01814 2.737589 -0 34.71637 -0 -2.472597 -4.029582 -2.075526 -2.54271 -18.69972 -7.405704 -0 19.96727 -0 -3.564998 -7.937856 19.59668 1.271372 -3.815561 7.271178 0.2075974 16.75686 -5.712298 1.742395 20.27352 1.390839 -1.156687 -20.85652 5.395211 -2.260899 -29.84798 13.36505 89.57215 17.35365 -9.933048 -0 0 25.8426 -24.88084 17.09412 16.18334 2.471259 -21.72682 -6.215081 -93.45729 11.72255 33.97003 0 0 -8.074939 8.999144 16.45491 1.891879
-548.1311 100.7685 3034.364 -2.74532 -8.0568 -32.27588 -0.5069768 15.20246 2.543428 -0 43.09951 -0 -2.812304 1.064245 -2.423859 -4.057547 -14.90669 -8.369663 -0 21.39532 -0 -2.721297 -9.044353 19.43218 1.071294 -3.796271 7.034136 0.2886095 16.57891 -5.791477 1.808892 20.57248 1.54741 -1.124511 -21.24089 5.670354 -1.907965 -29.24543 13.47467 89.36558 18.13035 -10.08379 -0 0 24.91528 -24.89907 17.03663 16.10581 2.551216 -21.50778 -5.794983 -93.34949 12.1275 33.01815 0 0 -7.539115 9.455637 16.98589 1.078534
-550.6645 101.9584 3040.471 -2.928134 -8.61516 -31.47141 -0.5525613 10.57048 2.202794 -0 50.27768 -0 -3.278067 4.735452 -3.019993 -4.866419 -10.35193 -8.885508 -0 21.56758 -0 -2.163209 -10.17899 18.9467 0.8263951 -3.746496 6.713805 0.4396188 16.29102 -5.993229 1.856539 20.98372 1.867382 -0.9714866 -21.74206 6.046259 -1.529668 -28.29816 13.55554 89.33539 19.14716 -10.72397 -0 0 23.43411 -24.60085 16.75376 15.55683 2.724471 -21.41806 -5.277075 -93.18726 12.67597 31.53551 0 0 -7.102068 10.12631 17.60587 -0.06303083
-553.0169 103.2597 3046.142 -3.32674 -8.828338 -30.47095 -0.1901285 4.462497 1.769054 -0 54.48198 -0 -3.852118 6.381893 -3.734102 -5.036279 -5.396423 -9.085666 -0 20.33029 -0 -1.9089 -11.34479 18.21876 0.5468291 -3.692293 6.340445 0.6718857 15.85853 -6.32524 1.862366 21.41925 2.3671 -0.6808354 -22.31747 6.505814 -1.140636 -27.08205 13.57007 89.4672 20.35719 -11.86782 -0 0 21.58429 -23.89525 16.25015 14.51812 3.042649 -21.50373 -4.657578 -92.97162 13.32503 29.62041 0 0 -6.997423 10.96414 18.194 -1.40737
-555.2058 104.357 3051.395 -3.685654 -8.636833 -29.4207 0.2626105 -2.456519 1.286577 -0 54.38533 -0 -4.417161 6.164433 -4.402165 -4.857572 -0.5393602 -9.092311 -0 18.1279 -0 -1.736377 -12.62694 17.42408 0.2575286 -3.644586 5.948376 0.979576 15.2637 -6.778625 1.81199 21.78105 3.045041 -0.250919 -22.93942 7.02748 -0.8018782 -25.69011 13.47865 89.79581 21.71005 -13.50822 -0 0 19.52417 -22.76005 15.52827 13.03253 3.547539 -21.80564 -3.947827 -92.6486 13.99997 27.3518 0 0 -7.552057 11.92613 18.59131 -2.833014
-557.2945 104.9754 3056.341 -3.735479 -8.097713 -28.44071 0.5219794 -9.350051 0.7074416 -0 49.57656 -0 -4.75709 4.71475 -4.909918 -4.680755 3.764881 -8.944131 -0 15.6731 -0 -1.429858 -14.14093 16.68647 -0.004027246 -3.601139 5.566824 1.341211 14.52665 -7.322462 1.70428 21.9799 3.868143 0.2984502 -23.58511 7.575846 -0.5901705 -24.22787 13.26533 90.3755 23.14476 -15.5843 -0 0 17.35883 -21.29112 14.62748 11.25052 4.253179 -22.35551 -3.187941 -92.12296 14.58052 24.79143 0 0 -9.100828 12.97974 18.65042 -4.245965
-559.3724 104.9459 3061.144 -3.329725 -7.361627 -27.60798 0.42947 -15.4384 -0.07183338 -0 40.81435 -0 -4.698132 2.800147 -5.234873 -4.754024 7.320044 -8.650068 -0 13.63288 -0 -1.008257 -15.94379 15.99854 -0.1978319 -3.552567 5.210581 1.726344 13.71358 -7.904463 1.553348 21.96355 4.765671 0.9211777 -24.22424 8.099716 -0.5582046 -22.80418 12.95658 91.23276 24.57403 -17.95497 -0 0 15.13935 -19.70027 13.65159 9.430201 5.127018 -23.1592 -2.451045 -91.3095 14.92367 22.01342 0 0 -11.84185 14.08956 18.30247 -5.578075
-561.5393 104.2463 3065.983 -2.527069 -6.608556 -26.94438 0.02146686 -20.19323 -1.0612 -0 29.94726 -0 -4.263636 1.118136 -5.443299 -5.109625 10.24841 -8.264933 -0 12.46553 -0 -0.7373541 -17.91198 15.26735 -0.2948393 -3.488059 4.87981 2.103034 12.92598 -8.460617 1.385072 21.74255 5.637299 1.545161 -24.81257 8.542036 -0.7103812 -21.52149 12.61771 92.32809 25.86656 -20.40165 -0 0 12.8984 -18.2466 12.75132 7.864693 6.076621 -24.1726 -1.835327 -90.20263 14.92825 19.15459 0 0 -15.68401 15.18541 17.6012 -6.755858
-563.8984 103.0085 3071.029 -1.584458 -5.973391 -26.41412 -0.4318661 -23.40811 -2.046318 -0 19.45019 -0 -3.692377 0.1531802 -5.650708 -5.558553 12.83249 -7.88813 -0 12.46734 -0 -0.938868 -19.66125 14.42238 -0.2870195 -3.398831 4.572005 2.441253 12.27276 -8.931812 1.22798 21.39521 6.376576 2.083926 -25.29839 8.857579 -1.009775 -20.46694 12.3249 93.55267 26.85605 -22.66817 -0 0 10.70123 -17.14289 12.05762 6.770654 6.955716 -25.28883 -1.441949 -88.91084 14.60303 16.44019 0 0 -20.18151 16.14524 16.70767 -7.677184
-566.5468 101.4936 3076.41 -0.8575911 -5.510125 -25.95538 -0.5103047 -25.14016 -2.637537 -0 11.65171 -0 -3.29817 0.03191821 -5.95014 -5.805797 15.23809 -7.597761 -0 13.93958 -0 -1.747172 -20.61416 13.50711 -0.1899174 -3.280533 4.296415 2.712652 11.83534 -9.279548 1.103352 21.04081 6.901895 2.461871 -25.63964 9.028231 -1.404613 -19.70068 12.12941 94.76356 27.39668 -24.52439 -0 0 8.672901 -16.49212 11.61191 6.207849 7.602884 -26.35382 -1.339594 -87.62102 14.08199 14.14194 0 0 -24.62772 16.82371 15.81898 -8.233314
